<svg width="36" height="35" viewBox="0 0 36 35" fill="none" xmlns="http://www.w3.org/2000/svg">
<path d="M0 19.6233C1.95262 19.6233 1.5 19.6233 5 19.6233C8.5 19.6233 6.48539 1 8.875 1C11.862 1 9.39773 34 12.2727 34C14.625 34 12.8328 9.88 14.625 9.88C17.0519 9.88 16 23.2 17.6493 23.2C19.5 23.2 18.6575 2.78833 20.4497 2.78833C22.2419 2.78833 21.2338 31.0933 23.3247 31.0933C25.4156 31.0933 23.6234 8.70833 25.4156 8.70833C27.2078 8.70833 26 19.6233 29.5 19.6233C33 19.6233 32 19.6233 35.5 19.6233" stroke="white"/>
</svg>
