<svg width="36" height="36" viewBox="0 0 36 36" fill="none" xmlns="http://www.w3.org/2000/svg">
<g clip-path="url(#clip0)">
<rect width="36" height="36" fill="white"/>
<path d="M0 17.5C2 17.5 2.8 17.5 6.3 17.5C8.8 17.5 7 1.5 9.3 1.5C12.3 1.5 9.5 33.5 12.4 33.5C14.8 33.5 13.7 10.4 15.5 10.4C17.9 10.4 16.9 23.7 18.6 23.7C20.5 23.7 19.9 3.3 21.7 3.3C23.5 3.3 22.7 30.6 24.8 30.6C26.9 30.6 25.6 9.2 27.4 9.2C29.2 9.2 27.4 17.5 30.9 17.5C34.4 17.5 36 17.5 36 17.5" stroke="black"/>
</g>
<defs>
<clipPath id="clip0">
<rect width="36" height="36" fill="white"/>
</clipPath>
</defs>
</svg>
