<svg width="36" height="36" viewBox="0 0 36 36" fill="none" xmlns="http://www.w3.org/2000/svg">
<rect width="36" height="36" fill="white"/>
<path d="M0 17.4998C2 17.4998 2.8 17.4998 6.3 17.4998C8.8 17.4998 7 11.7998 9.4 11.7998C12.4 11.7998 9.4 25 12.5 25C15.4 25 13.5 5 15.6 5C18.4 5 16.6 31.5 19 31.5C21.4 31.5 20 9.9999 21.8 9.9999C23.6 9.9999 22.8 22.3998 24.9 22.3998C27 22.3998 25.7 14.4999 27.5 14.4999C29.3 14.4999 27.5 17.4998 31 17.4998C34.5 17.4998 36 17.4998 36 17.4998" stroke="black"/>
</svg>
