<svg width="36" height="36" viewBox="0 0 36 36" fill="none" xmlns="http://www.w3.org/2000/svg">
<rect width="36" height="36" fill="white"/>
<path d="M0 17.4999C2 17.4999 2.8 17.4999 6.3 17.4999C8.8 17.4999 7 9.7999 9.4 9.7999C12.4 9.7999 9.4 27.5 12.5 27.5C15.4 27.5 13.5 1.5 15.6 1.5C18.4 1.5 16.6 33.3999 19 33.3999C21.4 33.3999 20 5 21.8 5C23.6 5 22.8 22.3999 24.9 22.3999C27 22.3999 25.7 11.7999 27.5 11.7999C29.3 11.7999 27.5 17.4999 31 17.4999C34.5 17.4999 36 17.4999 36 17.4999" stroke="black"/>
</svg>
